<svg width="131" height="27" viewBox="0 0 131 27" fill="none" xmlns="http://www.w3.org/2000/svg">
<path fill-rule="evenodd" clip-rule="evenodd" d="M61.1055 12.7892C61.4804 12.7892 61.7033 12.7495 62.0843 12.7495H63.8459V5.53803C64.0971 5.60635 64.4393 6.27375 64.6362 6.6062C64.7201 6.74786 64.7872 6.86302 64.871 7.00468L66.7258 10.1372C66.8246 10.3042 67.3384 11.1665 67.4568 11.2659C67.7336 11.4988 68.1626 11.4348 68.5826 11.4348C68.8058 11.4348 68.914 11.3756 69.0031 11.2253C69.0889 11.0806 69.1459 10.9673 69.2314 10.8202L71.0858 7.60765C71.2443 7.33987 71.4007 7.07414 71.5556 6.81092C71.6701 6.61625 72.4018 5.38883 72.5758 5.25928V12.7895H75.316C75.316 8.48367 75.2376 4.27999 75.2376 0H72.9671C72.8308 0 72.7556 0.22026 72.6368 0.421099L71.7608 1.91996C71.5541 2.26863 68.4037 7.7091 68.2694 7.80918C67.879 7.54322 64.5039 1.48013 63.7835 0.422013C63.6663 0.249735 63.5307 0 63.4151 0H61.1055V12.7895V12.7892Z" fill="white"/>
<path fill-rule="evenodd" clip-rule="evenodd" d="M119.368 0.200862V12.6495C119.368 12.858 119.903 12.7775 120.047 12.7571C120.385 12.7093 121.79 12.7284 122.201 12.7284V6.95856C122.201 6.34325 122.239 5.87141 122.239 5.25927C122.576 5.49271 124.076 7.33227 124.404 7.76627C124.484 7.87233 124.519 7.90202 124.596 8.00287L127.592 11.825C127.692 11.9633 128.24 12.768 128.363 12.768H130.162C130.417 12.768 130.494 12.7286 130.737 12.7286C130.737 12.1931 130.698 11.7525 130.698 11.1873L130.66 0.0823336H127.866L127.828 7.59109C127.614 7.44355 126.658 6.24625 126.423 5.95866L123.267 1.98513C123.034 1.68983 122.156 0.523358 121.901 0.312818C121.611 0.0725884 121.081 -0.010132 120.708 0.000972949L119.773 0.0655629C119.582 0.0927587 119.368 0.0231828 119.368 0.201088L119.368 0.200862Z" fill="white"/>
<path fill-rule="evenodd" clip-rule="evenodd" d="M60.7308 18.8815C60.9776 19.0613 62.0806 21.7183 62.2387 22.2771C62.2913 22.4638 62.3404 22.6576 62.4115 22.8046H59.1282L60.7306 18.8815H60.7308ZM54.7898 26.8055L54.7403 25.3397C54.7219 25.1936 54.7529 24.941 54.5944 24.941H49.396V16.3956C49.0011 16.3956 47.9122 16.4117 47.5874 16.3673C47.4634 16.3504 47.3321 16.356 47.205 16.3544C47.0389 16.3524 46.8945 16.3156 46.8945 16.4734V26.9997H57.3695L58.2063 24.9571C58.2531 24.8337 58.2614 24.708 58.3856 24.708H62.2942C62.6497 24.708 62.8443 24.7468 63.1933 24.7468C63.3018 24.9078 63.4235 25.0678 63.506 25.252C63.8465 26.0133 63.7945 26.2675 64.2878 26.9997H66.7893C66.7682 26.7482 64.668 22.1711 64.4447 21.6775L62.0598 16.3566C61.6433 16.3566 60.1877 16.3203 59.9149 16.3613C59.2815 16.4564 58.9989 17.6136 58.6461 18.4019C58.525 18.6724 58.4105 18.9214 58.3022 19.1867L57.6047 20.7074C57.4841 20.9482 57.3763 21.1946 57.2637 21.4563L56.733 22.5992C56.6664 22.7538 56.6348 22.8278 56.5615 22.9726C56.4284 23.2356 56.3407 23.4829 56.2107 23.7502C55.8077 24.5777 55.3787 25.632 54.986 26.4174L54.7901 26.8055H54.7898Z" fill="white"/>
<path fill-rule="evenodd" clip-rule="evenodd" d="M110.087 10.3621C108.749 10.3621 107.734 9.89195 106.935 8.94187C105.993 7.82188 105.78 6.01408 106.416 4.66032C106.627 4.21135 106.907 3.86667 107.253 3.53282C107.581 3.2162 108.027 2.95327 108.479 2.77695C108.719 2.68327 108.961 2.60704 109.257 2.55689C110.723 2.30898 111.967 2.5918 113.023 3.59071C114.5 4.98887 114.559 7.78056 113.023 9.23551C112.739 9.50441 112.492 9.68183 112.148 9.86367C111.585 10.1608 110.84 10.3621 110.087 10.3621H110.087ZM103.027 6.12411C103.027 7.49974 103.088 8.10867 103.632 9.28302C103.977 10.0263 104.474 10.5345 105.054 11.0853C105.264 11.2853 105.51 11.4304 105.736 11.5897C105.852 11.6721 105.886 11.6838 106.01 11.7512C106.365 11.9432 106.693 12.1399 107.117 12.2747C108.258 12.6372 108.886 12.7895 110.168 12.7895C111.814 12.7895 114.049 12.1271 115.162 11.0464C115.673 10.5499 115.907 10.3906 116.325 9.72999C116.436 9.55522 116.533 9.34554 116.625 9.16834C117.617 7.24808 117.394 4.50897 116.025 2.72746C114.272 0.445723 110.983 -0.530871 107.966 0.283988C107.711 0.352703 107.561 0.410371 107.329 0.48461C106.679 0.693406 105.973 1.08603 105.423 1.47755C105.321 1.55047 105.287 1.60659 105.193 1.68193C103.861 2.75177 103.026 4.4175 103.026 6.12411H103.027Z" fill="white"/>
<path fill-rule="evenodd" clip-rule="evenodd" d="M52.5986 3.0238C52.6109 3.17188 54.09 6.72843 54.2612 7.16148C54.3345 7.34675 54.4151 7.58335 54.4986 7.75835H50.5797C50.5922 7.60822 50.7566 7.28993 50.8117 7.15578L52.0616 4.19472C52.131 4.01903 52.4638 3.12282 52.5984 3.02357L52.5986 3.0238ZM45.4736 12.7712C46.4988 12.7712 47.3963 12.7315 48.4028 12.7315C48.5399 12.5255 48.6632 12.3594 48.7706 12.1066C48.8754 11.8593 48.9624 11.6576 49.0591 11.4018L49.4599 10.3327C49.509 10.2058 49.533 10.026 49.6695 10.026H55.2112C55.8095 10.026 56.0408 11.6553 56.3318 12.2417C56.6792 12.9415 56.9745 12.7712 58.1403 12.7712C58.7047 12.7712 59.123 12.7315 59.6842 12.7315C59.6683 12.5401 58.3163 9.65481 58.1176 9.17385L57.7615 8.37803C57.6902 8.20554 57.6425 8.12728 57.5749 7.96871C57.3388 7.41382 57.0973 6.92533 56.8626 6.3773L54.024 0H51.1343L45.8019 11.9471C45.7202 12.1374 45.4897 12.5775 45.4739 12.7712H45.4736Z" fill="white"/>
<path fill-rule="evenodd" clip-rule="evenodd" d="M81.8359 7.80858L83.0351 4.79422C83.2636 4.27603 83.4385 3.74892 83.6661 3.31869C83.733 3.19211 83.7502 3.14527 83.8912 3.10735L85.7488 7.76882C85.0872 7.76882 84.5058 7.80858 83.8121 7.80858C83.1534 7.80858 82.4945 7.80858 81.8359 7.80858ZM76.7373 12.7888C77.2511 12.7888 77.765 12.7888 78.2788 12.7888C78.8184 12.7888 79.2273 12.749 79.7806 12.749C79.7951 12.5745 80.2173 11.6101 80.3116 11.372L80.7881 10.1788C80.8309 10.0884 80.8098 10.0399 80.927 10.0399H86.4603C86.7078 10.0399 86.9351 10.358 87.0249 10.5465C87.2388 10.9948 87.3481 11.7184 87.5541 12.2043C87.6219 12.364 87.9102 12.7892 88.0806 12.7892H90.8471C91.0498 12.7892 90.8934 12.6122 90.8363 12.4822C90.769 12.3289 90.7087 12.1991 90.6552 12.0666C90.3147 11.2219 89.7626 10.1432 89.4016 9.26629L87.781 5.64075C87.2817 4.42294 86.465 2.80347 85.9913 1.62793C85.8816 1.35558 85.7409 1.09237 85.6357 0.831215C85.5702 0.668765 85.5156 0.583313 85.4492 0.421548C85.3862 0.26778 85.3062 0.137089 85.2744 0H82.3497C82.3173 0.139602 82.2443 0.248816 82.1861 0.392759C81.8411 1.24659 81.3275 2.30378 80.9551 3.17589L78.4898 8.77871C78.4259 8.91626 78.374 9.04124 78.3191 9.16439C78.2575 9.30285 78.1979 9.43262 78.1376 9.57908L76.7375 12.7895L76.7373 12.7888Z" fill="white"/>
<path fill-rule="evenodd" clip-rule="evenodd" d="M91.0933 2.39064C93.3981 2.39064 95.624 2.4304 97.9559 2.4304C97.9288 2.53025 97.8147 2.66368 97.7538 2.74891C97.6822 2.84898 97.613 2.93627 97.5295 3.04548L93.6486 7.6618C93.4734 7.86607 93.3252 8.04886 93.1578 8.25312C92.5606 8.98131 91.7594 9.85458 91.2142 10.5581C90.8361 11.0459 91.0355 11.2673 90.9473 11.8915L90.9723 12.7895H102.316V10.3988C101.073 10.3988 99.9646 10.3591 98.7228 10.3591C97.4984 10.3591 96.2738 10.3591 95.0494 10.3591C95.3312 9.83356 96.4231 8.56638 96.8558 8.11786L98.7231 5.89698C98.8703 5.71054 99.0191 5.53346 99.1722 5.34405L100.799 3.40398C101.809 2.12674 102.208 2.17701 102.07 0.521404C102.042 0.184845 102.064 0 101.912 0H91.2545C91.0676 0 91.1327 0.318052 91.1334 0.517977L91.0931 2.39064H91.0933Z" fill="white"/>
<path fill-rule="evenodd" clip-rule="evenodd" d="M84.8213 17.828C87.529 17.828 89.0109 20.3151 88.0911 22.667C88.0058 22.8855 87.9361 23.0504 87.8141 23.2347C87.7472 23.336 87.699 23.4142 87.6372 23.5002C87.4534 23.7556 87.2428 23.953 86.994 24.144C85.8168 25.0471 84.1303 25.0499 82.8982 24.2165C82.1341 23.6995 81.5192 22.6357 81.4834 21.7298C81.4761 21.543 81.441 21.4689 81.4449 21.3301C81.4486 21.2021 81.4761 21.1474 81.4834 20.9661C81.5222 20.0229 82.0619 18.9945 82.8338 18.455C83.0276 18.3196 83.1794 18.243 83.3996 18.136C83.7359 17.9727 84.339 17.8283 84.8213 17.8283V17.828ZM78.8689 20.8851C78.8689 21.6346 78.8477 22.0041 79.0375 22.7681C79.3106 23.8668 79.9054 24.8529 80.765 25.5454L81.3564 25.9998C82.1343 26.5442 83.5678 26.9993 84.5397 26.9993C85.7116 26.9993 86.4522 26.9605 87.5572 26.4775C88.6108 26.0171 89.064 25.5481 89.7384 24.7975C90.223 24.2582 90.6153 23.3466 90.7825 22.664C91.2652 20.6937 90.6755 18.601 89.1553 17.1941L88.7805 16.8853C88.2996 16.5227 87.9571 16.3471 87.3946 16.0991C86.7682 15.823 85.8652 15.654 85.0171 15.6327C83.5336 15.5954 81.9018 16.119 80.7708 17.0758C79.9478 17.7722 79.3883 18.5975 79.0836 19.6522C78.9911 19.9728 78.8686 20.5034 78.8686 20.8851H78.8689Z" fill="white"/>
<path fill-rule="evenodd" clip-rule="evenodd" d="M3.5532 19.5724C3.5532 20.8165 5.19914 21.8983 6.4816 20.9616C7.30133 20.3629 8.20296 18.7183 8.87855 17.7374L12.6066 12.2484C13.1829 11.4106 13.7798 10.5874 14.3126 9.7221C14.4112 9.56225 14.4776 9.42769 14.575 9.27344C15.7346 7.43892 13.7442 5.75194 12.0927 6.63719C11.2785 7.07376 10.4407 8.66223 9.91947 9.41426L8.58009 11.3977C7.9436 12.3178 6.55124 14.4944 5.90411 15.328L4.53766 17.246C4.21282 17.7258 3.8542 18.3296 3.68739 18.8826C3.63348 19.061 3.55273 19.3673 3.55273 19.5722L3.5532 19.5724Z" fill="#C3DE35"/>
<path fill-rule="evenodd" clip-rule="evenodd" d="M20.9829 21.3156C22.2406 21.3156 22.5168 20.6914 23.2038 19.8002L27.6357 13.1202C27.7438 12.9631 27.8212 12.8565 27.9202 12.6929L29.2991 10.6312C29.3963 10.4893 29.4836 10.3414 29.5799 10.2002C29.7675 9.92509 29.9419 9.65239 30.1347 9.37095C30.5915 8.70504 30.7065 8.15381 30.3174 7.40823C30.0034 6.80651 29.2866 6.35606 28.5688 6.39713C27.9566 6.43214 27.6774 6.63706 27.3 7.00087C27.1987 7.09873 27.1802 7.12903 27.095 7.23182C26.5969 7.83287 26.138 8.47835 25.7157 9.13641L24.9847 10.2635C23.7445 12.0606 22.4963 14.0233 21.24 15.8518L19.4022 18.6407C19.2684 18.8991 19.2423 19.0366 19.1958 19.382C19.0668 20.3411 20.0733 21.3156 20.9829 21.3156Z" fill="#C3DE35"/>
<path fill-rule="evenodd" clip-rule="evenodd" d="M14.2109 19.5241C14.2109 20.1246 14.4674 20.4777 14.7642 20.787C14.9087 20.9376 15.0683 21.066 15.2777 21.1522C16.1234 21.5009 16.9776 21.2863 17.4565 20.5583L21.2117 14.6081C21.314 14.4454 21.3919 14.312 21.4895 14.1538L23.4795 10.9436C23.6766 10.6376 23.8461 10.3494 24.0431 10.0434C24.6399 9.11612 25.3246 8.24403 24.4597 7.15869C24.3612 7.03523 24.3817 7.0698 24.268 6.96699C23.6942 6.44778 23.0135 6.16315 22.1979 6.63275C21.8399 6.83882 21.72 7.05431 21.4859 7.37801C21.0855 7.93179 20.0341 9.60614 19.739 10.098L18.5829 11.9463C17.3786 13.864 16.0866 16.036 14.8797 17.9113C14.5564 18.4136 14.2112 18.8516 14.2112 19.5239L14.2109 19.5241Z" fill="#C3DE35"/>
<path fill-rule="evenodd" clip-rule="evenodd" d="M9.2373 19.4298C9.2373 20.0231 9.40597 20.41 9.73725 20.7524C10.3714 21.408 11.3462 21.5055 12.0425 20.9695C12.2095 20.8409 12.2556 20.8392 12.3874 20.6614C12.4977 20.5134 12.5806 20.4305 12.6882 20.2683L14.2738 17.7607C14.9439 16.7265 15.6682 15.4714 16.358 14.3993L19.4995 9.35331C20.0696 8.47191 20.0386 7.65477 19.3094 6.90188C18.728 6.30155 17.7818 6.22763 17.1069 6.71405C16.8265 6.91604 16.6442 7.17014 16.4487 7.44133L10.1053 17.549C10.0185 17.6847 9.95139 17.8101 9.85655 17.957C9.55126 18.43 9.2373 18.8133 9.2373 19.43V19.4298Z" fill="#C3DE35"/>
<path fill-rule="evenodd" clip-rule="evenodd" d="M66.7891 21.331C66.7891 22.093 66.9886 23.0637 67.3132 23.719C67.5033 24.1028 67.8568 24.7544 68.1515 25.0637C68.4745 25.4025 68.4752 25.4659 68.8875 25.7826C69.0262 25.8891 69.1556 25.9764 69.3156 26.082C69.6191 26.2825 69.9298 26.4219 70.2891 26.5628C71.8499 27.1749 74.0303 27.1097 75.615 26.5758C76.1185 26.4061 77.3256 25.9399 77.3256 25.377V21.1281H74.9841C74.9841 21.4479 74.9415 21.6052 74.9429 21.896L74.9439 24.3653C74.1551 24.7836 73.7553 24.8913 72.8042 24.8913C72.3007 24.8913 71.8096 24.7512 71.458 24.5818C71.2461 24.4797 70.8843 24.265 70.7153 24.1123L70.2911 23.6877C70.1962 23.5853 70.1879 23.5893 70.1066 23.4679C69.9855 23.2871 69.8837 23.1521 69.7934 22.9321C69.4563 22.1111 69.4535 22.0118 69.4535 21.1281C69.4535 20.5469 69.5723 20.1753 69.7413 19.7574C70.2011 18.6206 71.5369 17.8101 72.885 17.8101C74.3081 17.8101 74.6244 18.1187 75.9127 18.9835L77.13 17.9375C77.2805 17.8175 77.3976 17.6984 77.447 17.4863C76.1204 15.5009 72.4294 15.2575 70.4104 16.0578C69.7193 16.3317 69.106 16.6654 68.5557 17.1527C67.6281 17.9741 66.7893 19.5887 66.7893 21.3303L66.7891 21.331Z" fill="white"/>
<path fill-rule="evenodd" clip-rule="evenodd" d="M24.0287 3.96583C24.0287 4.3607 24.1722 4.6629 24.3575 4.88474C24.8063 5.4218 25.6232 5.43042 26.1591 5.04033C26.5239 4.77501 26.8397 4.31739 27.172 3.94143C27.332 3.76033 27.4773 3.51776 27.8041 3.51776L34.9722 3.5829C35.4863 3.58216 36.2542 3.4629 36.6223 3.18528C37.2392 2.72014 37.4729 1.18656 36.1276 0.79335C35.7823 0.692432 34.4049 0.66913 33.9792 0.670047C32.1608 0.674084 30.1694 0.575368 28.412 0.67023C28.0593 0.689313 27.6793 0.63812 27.3425 0.688579C26.483 0.817203 26.6859 0.556285 25.8441 1.39794C25.4736 1.7684 25.159 2.14583 24.8186 2.54822C24.514 2.90822 24.0283 3.33281 24.0283 3.96565L24.0287 3.96583Z" fill="white"/>
<path fill-rule="evenodd" clip-rule="evenodd" d="M91.7809 19.126C91.7809 20.6457 93.0025 21.5785 94.3614 21.9641L96.4806 22.5258C96.7588 22.6071 98.258 23.0584 98.258 23.4645C98.258 23.9681 98.1802 24.3892 97.7279 24.6691C96.9303 25.163 94.991 24.9087 94.2196 24.6346C93.8853 24.5157 93.6648 24.3828 93.3559 24.2409C93.0524 24.1015 92.7088 24.0105 92.4322 23.866C92.3637 24.007 92.3079 24.1623 92.2399 24.319L91.6582 25.6737C92.2261 26.51 94.5287 26.9993 95.6912 26.9993C97.2092 26.9993 98.2654 26.9332 99.4962 26.1317C101.203 25.0204 101.287 22.6264 100.079 21.628C99.2282 20.9247 98.1753 20.6522 97.1006 20.3873C96.699 20.2882 96.3617 20.2046 95.9598 20.106C95.3622 19.9592 94.3467 19.6844 94.3467 18.8848C94.3467 18.1004 95.6984 17.7198 96.2615 17.7198C97.5242 17.7198 98.0954 17.8751 99.2062 18.351C99.3368 18.407 99.3812 18.451 99.5205 18.483C99.7286 18.3457 99.9097 17.9458 100.016 17.686C100.473 16.5652 100.384 16.6585 100.027 16.4173C99.2062 15.8645 97.598 15.6309 96.5874 15.6309C95.1637 15.6309 93.5568 16.0644 92.7053 16.9046C92.1645 17.4383 91.7809 18.3195 91.7809 19.126Z" fill="white"/>
<path fill-rule="evenodd" clip-rule="evenodd" d="M2.13184 15.283C2.13184 16.2994 2.92519 17.0524 3.98356 17.0524C4.58427 17.0524 5.0064 16.5623 5.31781 16.1599L5.88535 15.2964C6.54868 14.1198 7.28894 13.0119 7.98911 11.8675C8.21925 11.4916 8.4535 11.0725 8.70141 10.7091L9.7496 8.96986C10.3754 7.75358 9.42325 6.39453 8.216 6.39453C6.96497 6.39453 6.27867 8.07736 5.54058 9.28325L2.69895 13.9251C2.48398 14.2763 2.13205 14.7206 2.13205 15.283H2.13184Z" fill="#C3DE35"/>
<path fill-rule="evenodd" clip-rule="evenodd" d="M34.8154 5.55627C34.8154 6.02866 34.8791 6.61824 35.2004 6.85965C35.3145 6.94533 35.4335 6.98621 35.5891 7.02319C36.0669 7.13647 40.8746 7.10027 41.2824 7.10027C41.7756 7.10027 44.069 7.06434 44.4373 6.80054C44.8379 6.51356 44.9689 4.73336 44.242 4.41304C43.9262 4.27398 43.3287 4.21929 42.8681 4.30393C42.0897 4.4469 35.9261 4.20706 35.3844 4.3857C35.2084 4.44377 35.0555 4.60445 34.9644 4.78362C34.8971 4.91591 34.8154 5.34169 34.8154 5.55627Z" fill="#C3DE35"/>
<path fill-rule="evenodd" clip-rule="evenodd" d="M14.9209 24.264C14.9209 24.6889 15.0246 25.0586 15.1574 25.3712C15.2531 25.5965 15.5405 26.0144 15.7032 26.1645C16.1741 26.5986 16.9217 27.0006 17.5762 27.0006C18.6448 27.0006 19.0914 26.8789 19.8487 26.1068C20.208 25.7406 20.6051 24.8615 20.6051 24.1377C20.6051 21.8808 17.6566 20.2403 15.7606 22.1691C15.2966 22.6411 14.9209 23.3405 14.9209 24.264Z" fill="white"/>
<path fill-rule="evenodd" clip-rule="evenodd" d="M5.68481 24.2154C5.68481 24.9746 5.97003 25.6625 6.46712 26.1633C7.52242 27.2261 9.45255 27.3248 10.5651 26.1841C10.9096 25.8307 11.3688 25.0212 11.3688 24.3417C11.3688 23.7235 11.3645 23.4259 11.0481 22.8546C10.1347 21.2048 7.93227 20.7402 6.53087 22.1633C5.98633 22.7163 5.68457 23.3388 5.68457 24.2152L5.68481 24.2154Z" fill="white"/>
<path fill-rule="evenodd" clip-rule="evenodd" d="M0 11.5845C0.0289894 11.7901 0.125766 11.8333 0.409121 12.1692C0.487152 12.2617 0.487806 12.2962 0.561042 12.3772C1.09615 12.9703 2.34988 12.9674 2.96563 12.077C3.09925 11.8838 3.21564 11.6941 3.34511 11.4947C3.4748 11.295 3.59643 11.0858 3.7357 10.8831L4.47352 9.65358C4.86803 8.8804 5.18147 8.31046 4.80264 7.4496C4.68821 7.18941 4.63241 7.10363 4.45739 6.91302C3.77995 6.1751 2.66789 6.25706 2.08048 6.95471C1.62079 7.50059 0.66523 9.30595 0.151704 10.0813C0.0802112 10.1892 0.000217965 10.2366 0.000217965 10.4144V11.5848L0 11.5845Z" fill="#C3DE35"/>
</svg>
