<svg width="123" height="39" viewBox="0 0 123 39" fill="none" xmlns="http://www.w3.org/2000/svg">
<g clip-path="url(#clip0_1_668)">
<path fill-rule="evenodd" clip-rule="evenodd" d="M76.3069 30.2169C69.1591 35.618 58.7989 38.4997 49.879 38.4997C37.3718 38.4997 26.1121 33.7573 17.5937 25.8697C16.9244 25.2494 17.5241 24.4041 18.3272 24.8871C27.5202 30.3706 38.887 33.6694 50.6286 33.6694C58.5473 33.6694 67.2584 31.9898 75.2682 28.5043C76.4782 27.9774 77.4901 29.3167 76.3069 30.2169Z" fill="white"/>
<path fill-rule="evenodd" clip-rule="evenodd" d="M79.2784 26.732C78.3682 25.5354 73.239 26.1667 70.9367 26.4466C70.2353 26.5344 70.1282 25.9087 70.76 25.4586C74.8452 22.511 81.5485 23.3618 82.3302 24.3498C83.1119 25.3433 82.1268 32.2319 78.2879 35.5198C77.6989 36.0248 77.1368 35.7559 77.3991 35.0862C78.2611 32.8796 80.194 27.9341 79.2784 26.732Z" fill="white"/>
<path fill-rule="evenodd" clip-rule="evenodd" d="M71.0974 4.65032V1.78509C71.0974 1.35146 71.4186 1.06055 71.8041 1.06055H84.3166C84.7182 1.06055 85.0395 1.35695 85.0395 1.78509V4.23865C85.0341 4.65032 84.6968 5.18824 84.0971 6.03903L77.6133 15.5294C80.0227 15.469 82.5659 15.8368 84.7503 17.0993C85.2429 17.3847 85.3768 17.8018 85.4142 18.2135V21.2709C85.4142 21.688 84.9645 22.1765 84.4933 21.9241C80.6437 19.8547 75.5306 19.6297 71.274 21.946C70.8404 22.1875 70.3853 21.7045 70.3853 21.2873V18.3837C70.3853 17.9171 70.3906 17.1212 70.8457 16.4131L78.3575 5.36938H71.8202C71.4186 5.36938 71.0974 5.07846 71.0974 4.65032Z" fill="white"/>
<path fill-rule="evenodd" clip-rule="evenodd" d="M25.4535 22.5264H21.6468C21.2827 22.499 20.9936 22.2191 20.9668 21.8623V1.83311C20.9668 1.43242 21.2934 1.11406 21.7003 1.11406H25.2501C25.6195 1.13052 25.914 1.42144 25.9408 1.78371V4.40194H26.0104C26.9366 1.87153 28.6767 0.691406 31.0218 0.691406C33.4044 0.691406 34.8928 1.87153 35.9637 4.40194C36.8846 1.87153 38.978 0.691406 41.2214 0.691406C42.8169 0.691406 44.5624 1.36654 45.6278 2.88149C46.8325 4.5666 46.5862 7.01468 46.5862 9.16086L46.5809 21.8019C46.5809 22.2026 46.2543 22.5264 45.8474 22.5264H42.0459C41.6658 22.499 41.3606 22.1861 41.3606 21.8019V11.1863C41.3606 10.341 41.4356 8.23322 41.2535 7.43183C40.9698 6.08705 40.1185 5.70831 39.0155 5.70831C38.0946 5.70831 37.1309 6.33954 36.74 7.34951C36.3492 8.35948 36.3866 10.0501 36.3866 11.1863V21.8019C36.3866 22.2026 36.06 22.5264 35.6531 22.5264H31.8517C31.4662 22.499 31.1664 22.1861 31.1664 21.8019L31.161 11.1863C31.161 8.95229 31.5197 5.6644 28.8159 5.6644C26.08 5.6644 26.1871 8.86995 26.1871 11.1863V21.8019C26.1871 22.2026 25.8605 22.5264 25.4535 22.5264Z" fill="white"/>
<path fill-rule="evenodd" clip-rule="evenodd" d="M95.8117 0.691406C101.46 0.691406 104.517 5.6644 104.517 11.9877C104.517 18.0969 101.139 22.9436 95.8117 22.9436C90.2648 22.9436 87.2451 17.9706 87.2451 11.7736C87.2451 5.53815 90.3023 0.691406 95.8117 0.691406ZM95.8438 4.78067C93.0383 4.78067 92.8616 8.69978 92.8616 11.1424C92.8616 13.5904 92.8241 18.8159 95.8117 18.8159C98.7618 18.8159 98.901 14.6004 98.901 12.0316C98.901 10.341 98.8314 8.32106 98.3335 6.71828C97.9052 5.32409 97.0539 4.78067 95.8438 4.78067Z" fill="white"/>
<path fill-rule="evenodd" clip-rule="evenodd" d="M111.842 22.5264H108.052C107.671 22.499 107.366 22.1861 107.366 21.8019L107.361 1.76724C107.393 1.39948 107.709 1.11406 108.094 1.11406H111.623C111.955 1.13052 112.228 1.36106 112.303 1.67393V4.73677H112.372C113.438 1.99778 114.932 0.691406 117.56 0.691406C119.268 0.691406 120.934 1.32264 122.004 3.05166C123 4.65443 123 7.34951 123 9.28711V21.8952C122.957 22.2465 122.641 22.5264 122.267 22.5264H118.449C118.101 22.499 117.812 22.2355 117.775 21.8952V11.0161C117.775 8.82603 118.021 5.62048 115.392 5.62048C114.466 5.62048 113.614 6.25721 113.191 7.22326C112.656 8.4473 112.586 9.66584 112.586 11.0161V21.8019C112.581 22.2026 112.249 22.5264 111.842 22.5264Z" fill="white"/>
<path fill-rule="evenodd" clip-rule="evenodd" d="M61.1226 12.9599C61.1226 14.4804 61.1601 15.7483 60.4105 17.0986C59.8055 18.1964 58.8418 18.8715 57.7763 18.8715C56.3146 18.8715 55.458 17.7298 55.458 16.0447C55.458 12.7184 58.3653 12.1146 61.1226 12.1146V12.9599ZM64.9615 22.4723C64.7099 22.7028 64.3458 22.7193 64.062 22.5656C62.7985 21.4897 62.5682 20.9903 61.8776 19.9638C59.7895 22.1484 58.3064 22.8016 55.6025 22.8016C52.3954 22.8016 49.9058 20.7762 49.9058 16.7199C49.9058 13.5527 51.5762 11.3956 53.9642 10.3417C56.0309 9.40857 58.9167 9.2439 61.1226 8.98592V8.48094C61.1226 7.5533 61.1922 6.45552 60.6568 5.65414C60.1964 4.93508 59.3076 4.63867 58.5205 4.63867C57.0696 4.63867 55.7792 5.40163 55.4633 6.98245C55.3991 7.33375 55.1474 7.67955 54.7994 7.69602L51.1104 7.28983C50.7999 7.21848 50.4519 6.9605 50.5429 6.47199C51.3889 1.88323 55.4366 0.5 59.0559 0.5C60.9085 0.5 63.3285 1.00498 64.7902 2.44309C66.6427 4.21602 66.466 6.58176 66.466 9.15608V15.2378C66.466 17.0657 67.2049 17.867 67.9009 18.8551C68.1419 19.2064 68.1954 19.629 67.8849 19.8925C67.1085 20.5566 65.7271 21.7916 64.9669 22.4832L64.9615 22.4723Z" fill="white"/>
<path fill-rule="evenodd" clip-rule="evenodd" d="M11.2169 12.9599C11.2169 14.4804 11.2543 15.7483 10.5048 17.0986C9.89975 18.1964 8.94137 18.8715 7.87054 18.8715C6.40887 18.8715 5.55757 17.7298 5.55757 16.0447C5.55757 12.7184 8.46485 12.1146 11.2169 12.1146V12.9599ZM15.0558 22.4723C14.8041 22.7028 14.44 22.7193 14.1563 22.5656C12.8927 21.4897 12.6678 20.9903 11.9718 19.9638C9.88369 22.1484 8.40596 22.8016 5.69677 22.8016C2.49501 22.8016 0 20.7762 0 16.7199C0 13.5527 1.67584 11.3956 4.05842 10.3417C6.1251 9.40857 9.01097 9.2439 11.2169 8.98592V8.48094C11.2169 7.5533 11.2865 6.45552 10.7564 5.65414C10.2906 4.93508 9.40182 4.63867 8.62012 4.63867C7.16916 4.63867 5.87346 5.40163 5.55757 6.98245C5.49332 7.33375 5.24167 7.67955 4.89901 7.69602L1.20467 7.28983C0.894136 7.21848 0.551472 6.9605 0.637138 6.47199C1.48844 1.88323 5.5308 0.5 9.15018 0.5C11.0027 0.5 13.4228 1.00498 14.8844 2.44309C16.737 4.21602 16.5603 6.58176 16.5603 9.15608V15.2378C16.5603 17.0657 17.2991 17.867 17.9952 18.8551C18.2415 19.2064 18.295 19.629 17.9845 19.8925C17.2081 20.5566 15.8268 21.7916 15.0665 22.4832L15.0558 22.4723Z" fill="white"/>
</g>
<defs>
<clipPath id="clip0_1_668">
<rect width="123" height="38" fill="white" transform="translate(0 0.5)"/>
</clipPath>
</defs>
</svg>
