<svg width="184" height="38" viewBox="0 0 184 38" fill="none" xmlns="http://www.w3.org/2000/svg">
<path fill-rule="evenodd" clip-rule="evenodd" d="M86 17.9997C86.5277 17.9997 86.8414 17.9437 87.3776 17.9437H89.8569V7.79427C90.2105 7.89042 90.692 8.82973 90.9691 9.29761C91.0873 9.49699 91.1818 9.65906 91.2996 9.85844L93.9101 14.2672C94.0491 14.5023 94.7723 15.7159 94.9388 15.8558C95.3284 16.1834 95.9322 16.0934 96.5234 16.0934C96.8374 16.0934 96.9897 16.0101 97.1152 15.7985C97.2359 15.595 97.3161 15.4355 97.4365 15.2284L100.046 10.7071C100.269 10.3302 100.49 9.95619 100.708 9.58574C100.869 9.31176 101.899 7.58428 102.143 7.40195V18H106C106 11.94 105.89 6.02369 105.89 0H102.694C102.502 0 102.396 0.309996 102.229 0.592657L100.996 2.70217C100.705 3.19289 96.2716 10.8498 96.0826 10.9907C95.5332 10.6164 90.783 2.08314 89.7691 0.593944C89.6042 0.351478 89.4133 0 89.2506 0H86V18V17.9997Z" fill="#1F2406"/>
<path fill-rule="evenodd" clip-rule="evenodd" d="M168 0.282694V17.803C168 18.0964 168.753 17.9832 168.955 17.9545C169.431 17.8872 171.409 17.914 171.986 17.914V9.79352C171.986 8.92754 172.04 8.26346 172.04 7.40194C172.515 7.73047 174.625 10.3195 175.088 10.9303C175.2 11.0796 175.249 11.1214 175.358 11.2633L179.575 16.6426C179.715 16.8372 180.487 17.9698 180.66 17.9698H183.192C183.55 17.9698 183.658 17.9143 184 17.9143C184 17.1606 183.946 16.5405 183.946 15.745L183.892 0.115877H179.96L179.906 10.6838C179.605 10.4761 178.259 8.79103 177.929 8.38626L173.488 2.79389C173.16 2.37828 171.923 0.736578 171.565 0.440262C171.156 0.102162 170.411 -0.0142598 169.886 0.00136934L168.57 0.0922737C168.301 0.130549 168 0.0326277 168 0.283013L168 0.282694Z" fill="#1F2406"/>
<path fill-rule="evenodd" clip-rule="evenodd" d="M85.4733 26.5744C85.8206 26.8274 87.373 30.5669 87.5954 31.3534C87.6696 31.6162 87.7387 31.8889 87.8387 32.0958H83.2177L85.473 26.5744H85.4733ZM77.1119 37.7266L77.0422 35.6638C77.0163 35.4581 77.0599 35.1026 76.8368 35.1026H69.5206V23.0757C68.9647 23.0757 67.4322 23.0983 66.9751 23.0359C66.8006 23.0121 66.6158 23.0199 66.4369 23.0177C66.2032 23.0149 66 22.9632 66 23.1852V38H80.7426L81.9202 35.1252C81.9862 34.9515 81.9978 34.7747 82.1726 34.7747H87.6737C88.174 34.7747 88.4478 34.8292 88.939 34.8292C89.0917 35.0559 89.263 35.281 89.3791 35.5403C89.8583 36.6118 89.7851 36.9695 90.4794 38H94C93.9703 37.6461 91.0144 31.2042 90.7002 30.5095L87.3437 23.0209C86.7576 23.0209 84.7089 22.9698 84.325 23.0275C83.4335 23.1613 83.0357 24.79 82.5392 25.8995C82.3688 26.28 82.2076 26.6305 82.0553 27.0039L81.0735 29.1442C80.9038 29.4831 80.7521 29.8298 80.5937 30.1982L79.8467 31.8068C79.753 32.0243 79.7085 32.1284 79.6054 32.3322C79.418 32.7024 79.2946 33.0504 79.1117 33.4266C78.5444 34.5913 77.9406 36.0751 77.388 37.1805L77.1122 37.7266H77.1119Z" fill="#1F2406"/>
<path fill-rule="evenodd" clip-rule="evenodd" d="M154.938 14.5837C153.054 14.5837 151.625 13.922 150.501 12.5849C149.175 11.0086 148.876 8.46426 149.771 6.55897C150.067 5.92709 150.461 5.44199 150.948 4.97212C151.41 4.5265 152.038 4.15646 152.674 3.90831C153.012 3.77646 153.353 3.66917 153.769 3.59859C155.832 3.24968 157.583 3.64772 159.069 5.05359C161.149 7.02138 161.232 10.9504 159.069 12.9981C158.67 13.3766 158.322 13.6263 157.837 13.8822C157.046 14.3004 155.997 14.5837 154.938 14.5837H154.938ZM145 8.61912C145 10.5552 145.086 11.4122 145.853 13.065C146.338 14.1111 147.038 14.8263 147.853 15.6015C148.149 15.8829 148.496 16.0873 148.813 16.3115C148.977 16.4275 149.024 16.4439 149.2 16.5388C149.698 16.809 150.16 17.0858 150.757 17.2755C152.363 17.7857 153.247 18 155.052 18C157.368 18 160.514 17.0677 162.079 15.5468C162.799 14.8481 163.129 14.6239 163.717 13.6941C163.872 13.4481 164.009 13.153 164.138 12.9036C165.535 10.201 165.221 6.34596 163.294 3.83865C160.827 0.627314 156.198 -0.747152 151.952 0.399687C151.593 0.496397 151.382 0.577559 151.055 0.682043C150.14 0.975905 149.147 1.52849 148.373 2.07952C148.229 2.18214 148.182 2.26112 148.05 2.36716C146.175 3.87286 145 6.21722 145 8.61912H145Z" fill="#1F2406"/>
<path fill-rule="evenodd" clip-rule="evenodd" d="M74.0278 4.25572C74.045 4.46412 76.1268 9.46965 76.3677 10.0791C76.4708 10.3399 76.5843 10.6729 76.7018 10.9192H71.1863C71.2039 10.7079 71.4352 10.2599 71.5129 10.0711L73.2719 5.90368C73.3697 5.65642 73.838 4.39508 74.0275 4.2554L74.0278 4.25572ZM64 17.9743C65.4428 17.9743 66.706 17.9185 68.1226 17.9185C68.3155 17.6285 68.489 17.3947 68.6401 17.0389C68.7877 16.6909 68.9101 16.407 69.0462 16.047L69.6104 14.5423C69.6794 14.3637 69.7132 14.1107 69.9052 14.1107H77.7047C78.5468 14.1107 78.8724 16.4038 79.2819 17.229C79.7707 18.2139 80.1864 17.9743 81.8272 17.9743C82.6214 17.9743 83.2102 17.9185 84 17.9185C83.9776 17.6491 82.0748 13.5883 81.7953 12.9113L81.294 11.7913C81.1937 11.5485 81.1266 11.4384 81.0314 11.2152C80.6991 10.4343 80.3592 9.74677 80.0289 8.97545L76.0338 0H71.9668L64.462 16.8145C64.347 17.0823 64.0227 17.7017 64.0003 17.9743H64Z" fill="#1F2406"/>
<path fill-rule="evenodd" clip-rule="evenodd" d="M115.176 10.9899L116.864 6.74743C117.185 6.01812 117.431 5.27626 117.752 4.67075C117.846 4.4926 117.87 4.42668 118.068 4.3733L120.683 10.9339C119.752 10.9339 118.934 10.9899 117.957 10.9899C117.03 10.9899 116.103 10.9899 115.176 10.9899ZM108 17.999C108.723 17.999 109.446 17.999 110.169 17.999C110.929 17.999 111.504 17.9431 112.283 17.9431C112.304 17.6974 112.898 16.3401 113.031 16.005L113.701 14.3258C113.761 14.1984 113.732 14.1303 113.897 14.1303H121.684C122.033 14.1303 122.352 14.5779 122.479 14.8432C122.78 15.4741 122.934 16.4925 123.224 17.1765C123.319 17.4012 123.725 17.9997 123.965 17.9997H127.858C128.143 17.9997 127.923 17.7505 127.843 17.5675C127.748 17.3517 127.663 17.1691 127.588 16.9826C127.109 15.7937 126.332 14.2756 125.824 13.0414L123.543 7.93883C122.84 6.22488 121.691 3.94562 121.024 2.29116C120.87 1.90785 120.672 1.53741 120.524 1.16986C120.431 0.941225 120.355 0.820959 120.261 0.59329C120.172 0.376876 120.06 0.19294 120.015 0H115.899C115.853 0.196477 115.751 0.350186 115.669 0.552773C115.183 1.75447 114.46 3.24235 113.936 4.46977L110.466 12.3552C110.377 12.5488 110.303 12.7247 110.226 12.898C110.139 13.0929 110.056 13.2755 109.971 13.4817L108 18L108 17.999Z" fill="#1F2406"/>
<path fill-rule="evenodd" clip-rule="evenodd" d="M128.206 3.36461C131.449 3.36461 134.582 3.42056 137.864 3.42056C137.826 3.56109 137.665 3.74889 137.58 3.86883C137.479 4.00968 137.381 4.13252 137.264 4.28624L131.802 10.7833C131.555 11.0708 131.347 11.328 131.111 11.6155C130.271 12.6404 129.143 13.8694 128.376 14.8595C127.844 15.5461 128.124 15.8577 128 16.7362L128.035 18H144V14.6354C142.251 14.6354 140.691 14.5794 138.943 14.5794C137.22 14.5794 135.497 14.5794 133.773 14.5794C134.17 13.8398 135.707 12.0564 136.316 11.4251L138.944 8.29945C139.151 8.03705 139.36 7.78783 139.576 7.52125L141.866 4.79078C143.287 2.99319 143.849 3.06394 143.654 0.733828C143.614 0.260152 143.645 0 143.431 0H128.432C128.169 0 128.261 0.447628 128.262 0.729004L128.205 3.36461H128.206Z" fill="#1F2406"/>
<path fill-rule="evenodd" clip-rule="evenodd" d="M119.378 25.0923C123.189 25.0923 125.275 28.5927 123.98 31.9028C123.86 32.2102 123.762 32.4423 123.591 32.7017C123.496 32.8443 123.429 32.9543 123.342 33.0754C123.083 33.4348 122.787 33.7127 122.436 33.9815C120.779 35.2525 118.406 35.2564 116.672 34.0834C115.596 33.3559 114.731 31.8586 114.681 30.5837C114.67 30.3208 114.621 30.2166 114.627 30.0211C114.632 29.8409 114.67 29.764 114.681 29.5088C114.735 28.1813 115.495 26.7341 116.581 25.9747C116.854 25.7841 117.068 25.6764 117.378 25.5257C117.851 25.2959 118.7 25.0926 119.378 25.0926V25.0923ZM111.001 29.3949C111.001 30.4497 110.971 30.9697 111.238 32.045C111.623 33.5913 112.46 34.9791 113.67 35.9537L114.502 36.5933C115.597 37.3595 117.614 38 118.982 38C120.631 38 121.674 37.9455 123.229 37.2656C124.712 36.6176 125.35 35.9576 126.299 34.9012C126.981 34.1422 127.533 32.8592 127.768 31.8986C128.448 29.1254 127.618 26.1802 125.478 24.2002L124.951 23.7655C124.274 23.2551 123.792 23.0081 123 22.6591C122.119 22.2705 120.848 22.0325 119.654 22.0026C117.566 21.95 115.27 22.687 113.678 24.0336C112.52 25.0137 111.732 26.1753 111.303 27.6596C111.173 28.1109 111.001 28.8576 111.001 29.3949H111.001Z" fill="#1F2406"/>
<path fill-rule="evenodd" clip-rule="evenodd" d="M5.00065 27.5466C5.00065 29.2976 7.31716 30.8202 9.1221 29.5018C10.2758 28.6592 11.5448 26.3445 12.4956 24.9641L17.7424 17.2388C18.5535 16.0597 19.3937 14.9011 20.1436 13.6832C20.2823 13.4583 20.3757 13.2689 20.5128 13.0518C22.1449 10.4699 19.3435 8.09562 17.0192 9.34152C15.8733 9.95596 14.6942 12.1916 13.9606 13.25L12.0755 16.0414C11.1797 17.3365 9.22012 20.3999 8.30934 21.573L6.38619 24.2724C5.92901 24.9477 5.42429 25.7975 5.18951 26.5758C5.11364 26.8269 5 27.258 5 27.5463L5.00065 27.5466Z" fill="#C3DE35"/>
<path fill-rule="evenodd" clip-rule="evenodd" d="M29.531 30C31.301 30 31.6898 29.1215 32.6567 27.8672L38.8942 18.4658C39.0463 18.2446 39.1552 18.0946 39.2946 17.8643L41.2352 14.9627C41.3721 14.763 41.495 14.5549 41.6305 14.3562C41.8944 13.9689 42.1399 13.5851 42.4113 13.189C43.0543 12.2518 43.2161 11.476 42.6684 10.4267C42.2265 9.57982 41.2177 8.94585 40.2074 9.00366C39.3459 9.05294 38.9529 9.34133 38.4218 9.85337C38.2791 9.99109 38.2532 10.0337 38.1332 10.1784C37.4322 11.0243 36.7863 11.9328 36.1919 12.8589L35.1631 14.4453C33.4177 16.9745 31.6609 19.7368 29.8928 22.3103L27.3063 26.2354C27.1179 26.599 27.0813 26.7926 27.0158 27.2787C26.8342 28.6285 28.2509 30 29.531 30Z" fill="#C3DE35"/>
<path fill-rule="evenodd" clip-rule="evenodd" d="M20 27.4787C20 28.3238 20.361 28.8207 20.7787 29.2561C20.9821 29.4681 21.2067 29.6488 21.5013 29.7701C22.6916 30.2607 23.8938 29.9587 24.5679 28.9342L29.8529 20.5599C29.9969 20.3308 30.1066 20.1432 30.2439 19.9204L33.0447 15.4023C33.322 14.9717 33.5606 14.5661 33.8379 14.1355C34.6778 12.8304 35.6414 11.603 34.4241 10.0755C34.2856 9.90173 34.3144 9.95038 34.1543 9.80569C33.3469 9.07494 32.3887 8.67435 31.2408 9.33527C30.7371 9.62529 30.5682 9.92858 30.2388 10.3841C29.6753 11.1635 28.1955 13.52 27.7802 14.2122L26.1531 16.8136C24.4581 19.5126 22.6398 22.5695 20.9412 25.2087C20.4862 25.9158 20.0003 26.5322 20.0003 27.4784L20 27.4787Z" fill="#C3DE35"/>
<path fill-rule="evenodd" clip-rule="evenodd" d="M13 27.3459C13 28.181 13.2374 28.7255 13.7036 29.2074C14.5962 30.1301 15.9681 30.2673 16.9481 29.5129C17.183 29.332 17.248 29.3295 17.4335 29.0793C17.5886 28.871 17.7054 28.7543 17.8568 28.526L20.0884 24.9968C21.0315 23.5413 22.0508 21.7749 23.0217 20.266L27.443 13.1642C28.2454 11.9237 28.2018 10.7737 27.1755 9.71405C26.3573 8.86914 25.0256 8.7651 24.0758 9.4497C23.6811 9.73397 23.4246 10.0916 23.1494 10.4733L14.2217 24.6989C14.0995 24.8899 14.005 25.0663 13.8715 25.2731C13.4419 25.9388 13 26.4782 13 27.3462V27.3459Z" fill="#C3DE35"/>
<path fill-rule="evenodd" clip-rule="evenodd" d="M94 30.0224C94 31.0949 94.2809 32.461 94.7377 33.3833C95.0052 33.9235 95.5027 34.8405 95.9175 35.2759C96.3721 35.7527 96.373 35.8419 96.9533 36.2877C97.1485 36.4376 97.3307 36.5604 97.5558 36.709C97.983 36.9911 98.4202 37.1874 98.9259 37.3857C101.123 38.2472 104.191 38.1554 106.422 37.4039C107.13 37.1652 108.829 36.5091 108.829 35.7168V29.7369H105.534C105.534 30.187 105.474 30.4084 105.476 30.8176L105.477 34.2929C104.367 34.8817 103.804 35.0332 102.466 35.0332C101.757 35.0332 101.066 34.836 100.571 34.5976C100.273 34.4539 99.7636 34.1518 99.5258 33.9369L98.9289 33.3392C98.7953 33.1952 98.7835 33.2007 98.6692 33.0299C98.4988 32.7755 98.3554 32.5854 98.2283 32.2758C97.7539 31.1204 97.75 30.9806 97.75 29.7369C97.75 28.9188 97.9171 28.3959 98.155 27.8078C98.8021 26.2078 100.682 25.067 102.579 25.067C104.582 25.067 105.027 25.5014 106.841 26.7186L108.554 25.2463C108.766 25.0775 108.931 24.9099 109 24.6114C107.133 21.8171 101.938 21.4745 99.0967 22.6009C98.1241 22.9863 97.2609 23.456 96.4864 24.1418C95.1808 25.2979 94.0003 27.5703 94.0003 30.0214L94 30.0224Z" fill="#1F2406"/>
<path fill-rule="evenodd" clip-rule="evenodd" d="M33.8186 5.58143C33.8186 6.13716 34.0206 6.56248 34.2814 6.87469C34.9131 7.63056 36.0627 7.6427 36.8171 7.09368C37.3304 6.72027 37.7749 6.07622 38.2425 5.54708C38.4677 5.2922 38.6723 4.9508 39.1322 4.9508L49.2206 5.04248C49.9442 5.04145 51.0249 4.87359 51.543 4.48287C52.4112 3.82823 52.7402 1.66986 50.8467 1.11645C50.3607 0.974417 48.4221 0.94162 47.823 0.942912C45.2638 0.948593 42.4612 0.809659 39.9877 0.94317C39.4914 0.970027 38.9566 0.897978 38.4825 0.968994C37.2729 1.15002 37.5585 0.782803 36.3737 1.96735C35.8523 2.48874 35.4094 3.01994 34.9304 3.58626C34.5017 4.09293 33.8181 4.6905 33.8181 5.58117L33.8186 5.58143Z" fill="#1F2406"/>
<path fill-rule="evenodd" clip-rule="evenodd" d="M129.173 26.9191C129.173 29.058 130.892 30.3707 132.805 30.9135L135.787 31.7039C136.179 31.8184 138.289 32.4535 138.289 33.0251C138.289 33.7339 138.179 34.3266 137.543 34.7205C136.42 35.4156 133.691 35.0577 132.605 34.6719C132.134 34.5046 131.824 34.3175 131.389 34.1178C130.962 33.9216 130.479 33.7936 130.089 33.5903C129.993 33.7887 129.914 34.0072 129.819 34.2277L129 36.1344C129.799 37.3114 133.04 38 134.676 38C136.813 38 138.299 37.9069 140.031 36.779C142.433 35.2149 142.552 31.8456 140.852 30.4405C139.654 29.4506 138.172 29.0671 136.66 28.6942C136.094 28.5548 135.62 28.4371 135.054 28.2983C134.213 28.0918 132.784 27.705 132.784 26.5796C132.784 25.4757 134.686 24.94 135.479 24.94C137.256 24.94 138.06 25.1586 139.623 25.8284C139.807 25.9072 139.869 25.9691 140.065 26.0142C140.358 25.8209 140.613 25.2581 140.762 24.8924C141.406 23.315 141.281 23.4464 140.778 23.1069C139.623 22.3288 137.36 22 135.937 22C133.934 22 131.672 22.6102 130.474 23.7926C129.713 24.5438 129.172 25.7833 129.172 26.9184L129.173 26.9191Z" fill="#1F2406"/>
<path fill-rule="evenodd" clip-rule="evenodd" d="M3 21.5097C3 22.9402 4.11657 24 5.60614 24C6.45157 24 7.04569 23.3102 7.48396 22.7439L8.28273 21.5286C9.2163 19.8726 10.2581 18.3133 11.2436 16.7028C11.5675 16.1737 11.8972 15.5838 12.2461 15.0723L13.7213 12.6245C14.6021 10.9127 13.262 9 11.5629 9C9.80219 9 8.83628 11.3684 7.79749 13.0656L3.79816 19.5986C3.49561 20.0928 3.00031 20.7182 3.00031 21.5097H3Z" fill="#C3DE35"/>
<path fill-rule="evenodd" clip-rule="evenodd" d="M49 7.81921C49 8.48406 49.0896 9.31384 49.5419 9.6536C49.7024 9.77418 49.8698 9.83172 50.0889 9.88377C50.7614 10.0432 57.5278 9.99226 58.1016 9.99226C58.7958 9.99226 62.0235 9.94168 62.5418 9.5704C63.1057 9.16651 63.2901 6.66104 62.267 6.21023C61.8226 6.01451 60.9817 5.93754 60.3333 6.05666C59.2378 6.25787 50.5631 5.92032 49.8007 6.17174C49.553 6.25348 49.3379 6.47961 49.2097 6.73177C49.1149 6.91796 49 7.51721 49 7.81921Z" fill="#C3DE35"/>
<path fill-rule="evenodd" clip-rule="evenodd" d="M21 34.1485C21 34.7465 21.146 35.2667 21.3329 35.7068C21.4675 36.0238 21.872 36.612 22.101 36.8233C22.7638 37.4342 23.8159 38 24.7371 38C26.241 38 26.8696 37.8287 27.9355 36.7421C28.4411 36.2266 29 34.9895 29 33.9708C29 30.7944 24.8503 28.4855 22.1817 31.2001C21.5288 31.8644 21 32.8488 21 34.1485Z" fill="#1F2406"/>
<path fill-rule="evenodd" clip-rule="evenodd" d="M8.00034 34.0801C8.00034 35.1485 8.40175 36.1167 9.10137 36.8216C10.5866 38.3173 13.3031 38.4563 14.8689 36.8508C15.3537 36.3535 16 35.2141 16 34.2578C16 33.3878 15.9939 32.9689 15.5487 32.1649C14.2631 29.8429 11.1634 29.189 9.19109 31.1919C8.42469 31.9702 8 32.8463 8 34.0798L8.00034 34.0801Z" fill="#1F2406"/>
<path fill-rule="evenodd" clip-rule="evenodd" d="M0 16.3044C0.0407998 16.5938 0.177004 16.6545 0.575799 17.1273C0.685622 17.2575 0.686542 17.3061 0.789615 17.4201C1.54272 18.2548 3.30724 18.2507 4.17385 16.9976C4.3619 16.7256 4.52572 16.4587 4.70793 16.178C4.89046 15.897 5.06164 15.6026 5.25766 15.3172L6.29606 13.5868C6.85131 12.4986 7.29244 11.6965 6.75928 10.4849C6.59822 10.1187 6.51969 9.99799 6.27336 9.72972C5.31993 8.69117 3.75481 8.80653 2.92808 9.78841C2.28111 10.5567 0.936249 13.0976 0.213509 14.1888C0.11289 14.3407 0.000306766 14.4074 0.000306766 14.6576V16.3048L0 16.3044Z" fill="#C3DE35"/>
</svg>
