<svg width="150" height="31" viewBox="0 0 150 31" fill="none" xmlns="http://www.w3.org/2000/svg">
<path fill-rule="evenodd" clip-rule="evenodd" d="M69.7988 14.7233C70.2301 14.7233 70.4865 14.6784 70.9248 14.6784H72.9512V6.52779C73.2401 6.605 73.6337 7.35932 73.8602 7.73506C73.9568 7.89517 74.034 8.02532 74.1303 8.18543L76.2639 11.7259C76.3775 11.9147 76.9686 12.8893 77.1047 13.0016C77.4231 13.2648 77.9166 13.1925 78.3998 13.1925C78.6565 13.1925 78.7809 13.1256 78.8835 12.9556C78.9821 12.7922 79.0477 12.6641 79.1461 12.4978L81.2792 8.86693C81.4615 8.56427 81.6415 8.26394 81.8197 7.96644C81.9514 7.74642 82.793 6.35916 82.9931 6.21273V14.7236H86.1452C86.1452 9.85702 86.0551 5.10592 86.0551 0.268555H83.4432C83.2865 0.268555 83.2 0.517498 83.0633 0.744492L82.0557 2.43855C81.8179 2.83262 78.194 8.98159 78.0395 9.0947C77.5905 8.79411 73.7081 1.94144 72.8794 0.745525C72.7446 0.550812 72.5886 0.268555 72.4556 0.268555H69.7988V14.7236V14.7233Z" fill="#FEFEFE"/>
<path fill-rule="evenodd" clip-rule="evenodd" d="M136.625 0.402705V14.5876C136.625 14.8252 137.255 14.7335 137.424 14.7103C137.822 14.6558 139.475 14.6775 139.958 14.6775V8.10292C139.958 7.4018 140.003 6.86414 140.003 6.16663C140.4 6.43262 142.164 8.52876 142.55 9.02329C142.644 9.14414 142.685 9.17797 142.776 9.29289L146.301 13.6481C146.418 13.8056 147.063 14.7227 147.208 14.7227H149.324C149.624 14.7227 149.714 14.6777 150 14.6777C150 14.0675 149.955 13.5655 149.955 12.9214L149.91 0.267645H146.623L146.578 8.82367C146.327 8.65555 145.201 7.29127 144.926 6.96356L141.213 2.43583C140.939 2.09934 139.905 0.770181 139.606 0.530276C139.264 0.256541 138.641 0.162283 138.202 0.174937L137.102 0.248535C136.877 0.279524 136.626 0.200244 136.626 0.402963L136.625 0.402705Z" fill="#FEFEFE"/>
<path fill-rule="evenodd" clip-rule="evenodd" d="M69.6187 21.3428C69.903 21.5512 71.1738 24.6315 71.3558 25.2794C71.4165 25.4958 71.4731 25.7205 71.5549 25.8909H67.7722L69.6184 21.3428H69.6187ZM62.774 30.5292L62.7169 28.83C62.6958 28.6606 62.7314 28.3677 62.5488 28.3677H56.5597V18.4608C56.1047 18.4608 54.8501 18.4794 54.476 18.428C54.3331 18.4084 54.1818 18.4149 54.0354 18.4131C53.844 18.4107 53.6777 18.3681 53.6777 18.551V30.7544H65.7461L66.7101 28.3863C66.7641 28.2432 66.7736 28.0976 66.9167 28.0976H71.4199C71.8295 28.0976 72.0536 28.1425 72.4557 28.1425C72.5807 28.3292 72.7209 28.5146 72.8159 28.7282C73.2082 29.6109 73.1483 29.9055 73.7167 30.7544H76.5986C76.5744 30.4628 74.1547 25.1565 73.8974 24.5842L71.1498 18.4156C70.67 18.4156 68.9929 18.3735 68.6787 18.4211C67.9489 18.5313 67.6232 19.8729 67.2168 20.7868C67.0773 21.1003 66.9454 21.389 66.8206 21.6966L66.017 23.4596C65.878 23.7387 65.7538 24.0244 65.6242 24.3278L65.0127 25.6528C64.936 25.832 64.8996 25.9178 64.8151 26.0856C64.6617 26.3906 64.5608 26.6773 64.411 26.9872C63.9467 27.9465 63.4524 29.1688 63 30.0793L62.7743 30.5292H62.774Z" fill="#FEFEFE"/>
<path fill-rule="evenodd" clip-rule="evenodd" d="M126.178 12.111C124.684 12.111 123.551 11.5615 122.659 10.4511C121.608 9.14205 121.371 7.02913 122.081 5.44689C122.316 4.92214 122.628 4.51929 123.014 4.12909C123.381 3.75903 123.878 3.45172 124.383 3.24565C124.651 3.13615 124.921 3.04706 125.251 2.98844C126.887 2.69869 128.276 3.02924 129.454 4.19675C131.103 5.83089 131.169 9.09376 129.454 10.7943C129.138 11.1086 128.861 11.3159 128.477 11.5285C127.85 11.8758 127.018 12.111 126.178 12.111H126.178ZM118.298 7.15773C118.298 8.76554 118.366 9.47725 118.974 10.8498C119.358 11.7185 119.913 12.3125 120.56 12.9563C120.795 13.19 121.07 13.3596 121.321 13.5458C121.451 13.6421 121.489 13.6558 121.628 13.7346C122.023 13.959 122.389 14.1888 122.862 14.3464C124.136 14.7701 124.837 14.9481 126.268 14.9481C128.105 14.9481 130.6 14.1739 131.841 12.9108C132.412 12.3305 132.673 12.1444 133.14 11.3722C133.263 11.1679 133.372 10.9229 133.474 10.7158C134.581 8.4714 134.332 5.26999 132.805 3.1878C130.848 0.520952 127.177 -0.620471 123.81 0.331919C123.526 0.412232 123.358 0.479633 123.099 0.566402C122.373 0.810439 121.586 1.26933 120.972 1.72693C120.858 1.81215 120.821 1.87775 120.716 1.96581C119.229 3.21621 118.297 5.16308 118.297 7.15773H118.298Z" fill="#FEFEFE"/>
<path fill-rule="evenodd" clip-rule="evenodd" d="M60.2072 3.69004C60.2212 3.85764 61.9039 7.88309 62.0986 8.37323C62.182 8.58292 62.2737 8.85072 62.3687 9.04879H57.9104C57.9246 8.87886 58.1116 8.51862 58.1743 8.36677L59.5962 5.01533C59.6752 4.81648 60.0538 3.80212 60.207 3.68978L60.2072 3.69004ZM52.1016 14.7226C53.2678 14.7226 54.2889 14.6777 55.4339 14.6777C55.5899 14.4445 55.7301 14.2565 55.8522 13.9703C55.9716 13.6904 56.0705 13.4621 56.1805 13.1726L56.6365 11.9625C56.6923 11.8189 56.7197 11.6154 56.8749 11.6154H63.1793C63.86 11.6154 64.1232 13.4595 64.4542 14.1232C64.8493 14.9152 65.1853 14.7226 66.5116 14.7226C67.1536 14.7226 67.6296 14.6777 68.2679 14.6777C68.2499 14.461 66.7118 11.1953 66.4858 10.6509L66.0806 9.75017C65.9996 9.55494 65.9453 9.46636 65.8684 9.28688C65.5998 8.65884 65.325 8.10595 65.058 7.48566L61.8287 0.267578H58.5413L52.475 13.7898C52.382 14.0052 52.1199 14.5033 52.1018 14.7226H52.1016Z" fill="#FEFEFE"/>
<path fill-rule="evenodd" clip-rule="evenodd" d="M93.5303 9.09418L94.8967 5.68721C95.157 5.10152 95.3563 4.50576 95.6156 4.0195C95.6918 3.87643 95.7114 3.82349 95.872 3.78062L97.9886 9.04925C97.2348 9.04925 96.5724 9.09418 95.7819 9.09418C95.0315 9.09418 94.2808 9.09418 93.5303 9.09418ZM87.7212 14.723C88.3066 14.723 88.8921 14.723 89.4775 14.723C90.0924 14.723 90.5582 14.6781 91.1886 14.6781C91.2051 14.4808 91.6862 13.3908 91.7936 13.1217L92.3365 11.7732C92.3853 11.6709 92.3613 11.6162 92.4948 11.6162H98.7992C99.0812 11.6162 99.3402 11.9756 99.4425 12.1887C99.6863 12.6953 99.8107 13.5132 100.045 14.0625C100.123 14.243 100.451 14.7236 100.645 14.7236H103.797C104.028 14.7236 103.85 14.5234 103.785 14.3765C103.708 14.2032 103.64 14.0565 103.579 13.9067C103.191 12.952 102.562 11.7329 102.15 10.7418L100.304 6.64399C99.7351 5.26757 98.8046 3.43716 98.2649 2.10852C98.1399 1.8007 97.9795 1.5032 97.8597 1.20803C97.7851 1.02442 97.7228 0.927843 97.6472 0.745008C97.5754 0.571213 97.4842 0.423499 97.4481 0.268555H94.1157C94.0788 0.42634 93.9957 0.549778 93.9293 0.71247C93.5363 1.67751 92.9511 2.87239 92.5268 3.8581L89.7179 10.1907C89.6451 10.3461 89.5859 10.4874 89.5235 10.6266C89.4532 10.7831 89.3853 10.9298 89.3166 11.0953L87.7214 14.7238L87.7212 14.723Z" fill="#FEFEFE"/>
<path fill-rule="evenodd" clip-rule="evenodd" d="M104.653 2.96955C107.224 2.96955 109.707 3.01448 112.308 3.01448C112.278 3.12733 112.151 3.27815 112.083 3.37447C112.003 3.48758 111.926 3.58623 111.833 3.70967L107.504 8.92716C107.308 9.15802 107.143 9.36461 106.956 9.59548C106.29 10.4185 105.396 11.4055 104.788 12.2006C104.366 12.752 104.589 13.0022 104.49 13.7077L104.518 14.7226H117.172V12.0206C115.785 12.0206 114.549 11.9757 113.164 11.9757C111.798 11.9757 110.432 11.9757 109.066 11.9757C109.381 11.3817 110.599 9.94953 111.081 9.4426L113.164 6.93251C113.329 6.72178 113.495 6.52165 113.665 6.30756L115.48 4.11484C116.607 2.67128 117.052 2.72809 116.898 0.856883C116.866 0.476495 116.891 0.267578 116.721 0.267578H104.833C104.625 0.267578 104.697 0.627049 104.698 0.853009L104.653 2.96955H104.653Z" fill="#FEFEFE"/>
<path fill-rule="evenodd" clip-rule="evenodd" d="M97.1777 20.6668C100.209 20.6668 101.869 23.4512 100.839 26.0842C100.743 26.3287 100.665 26.5134 100.529 26.7197C100.454 26.8331 100.4 26.9206 100.331 27.0169C100.125 27.3028 99.8889 27.5239 99.6103 27.7377C98.2922 28.7487 96.404 28.7518 95.0245 27.8188C94.1689 27.2401 93.4804 26.049 93.4404 25.0349C93.4322 24.8258 93.3929 24.7429 93.3973 24.5874C93.4014 24.4441 93.4322 24.3829 93.4404 24.1799C93.4838 23.124 94.0881 21.9727 94.9524 21.3687C95.1693 21.2171 95.3393 21.1314 95.5859 21.0116C95.9624 20.8287 96.6377 20.6671 97.1777 20.6671V20.6668ZM90.513 24.0893C90.513 24.9283 90.4892 25.342 90.7018 26.1973C91.0075 27.4273 91.6735 28.5313 92.636 29.3065L93.2981 29.8152C94.1692 30.4247 95.7741 30.9342 96.8624 30.9342C98.1745 30.9342 99.0037 30.8908 100.241 30.35C101.421 29.8346 101.928 29.3096 102.683 28.4693C103.226 27.8655 103.665 26.8449 103.852 26.0808C104.393 23.8749 103.732 21.5322 102.03 19.9572L101.611 19.6114C101.072 19.2054 100.689 19.0089 100.059 18.7313C99.3575 18.4222 98.3465 18.2329 97.3969 18.2091C95.7359 18.1673 93.9089 18.7535 92.6424 19.8247C91.721 20.6043 91.0946 21.5283 90.7534 22.709C90.6499 23.0679 90.5127 23.6619 90.5127 24.0893H90.513Z" fill="#FEFEFE"/>
<path fill-rule="evenodd" clip-rule="evenodd" d="M4.32278 22.4226C4.32278 23.8577 6.1599 25.1055 7.59133 24.025C8.50628 23.3345 9.51264 21.4375 10.2667 20.3061L14.4277 13.9748C15.071 13.0085 15.7373 12.0589 16.332 11.0608C16.442 10.8765 16.5161 10.7213 16.6248 10.5433C17.9191 8.42731 15.6975 6.48146 13.8542 7.50255C12.9454 8.00612 12.0103 9.83833 11.4285 10.7058L9.93357 12.9935C9.22315 14.0549 7.66906 16.5655 6.94676 17.5269L5.42159 19.7393C5.05903 20.2927 4.65875 20.9892 4.47256 21.627C4.41239 21.8328 4.32227 22.1861 4.32227 22.4224L4.32278 22.4226Z" fill="#C3DE35"/>
<path fill-rule="evenodd" clip-rule="evenodd" d="M24.0016 24.5393C25.4113 24.5393 25.721 23.8212 26.491 22.7957L31.4588 15.1097C31.5799 14.9289 31.6667 14.8062 31.7777 14.618L33.3233 12.2458C33.4323 12.0826 33.5302 11.9124 33.6381 11.75C33.8483 11.4334 34.0438 11.1196 34.2599 10.7958C34.772 10.0296 34.9009 9.39533 34.4647 8.53746C34.1127 7.84511 33.3094 7.32683 32.5047 7.37408C31.8185 7.41437 31.5056 7.65014 31.0826 8.06875C30.9689 8.18134 30.9483 8.21621 30.8527 8.33448C30.2944 9.02605 29.78 9.76875 29.3066 10.5259L28.4872 11.8228C27.0971 13.8905 25.698 16.1488 24.2898 18.2527L22.2298 21.4616C22.0798 21.7589 22.0506 21.9172 21.9984 22.3146C21.8538 23.418 22.9821 24.5393 24.0016 24.5393Z" fill="#C3DE35"/>
<path fill-rule="evenodd" clip-rule="evenodd" d="M16.0312 22.378C16.0312 23.0688 16.3388 23.475 16.6947 23.8308C16.8679 24.0041 17.0593 24.1518 17.3103 24.251C18.3244 24.652 19.3486 24.4052 19.9229 23.5677L24.4256 16.7225C24.5483 16.5353 24.6418 16.3819 24.7587 16.1998L27.1449 12.5067C27.3812 12.1548 27.5844 11.8232 27.8207 11.4712C28.5363 10.4044 29.3572 9.40114 28.3201 8.15254C28.2021 8.01051 28.2267 8.05028 28.0903 7.93201C27.4024 7.3347 26.5861 7.00725 25.6081 7.54749C25.1789 7.78455 25.0351 8.03246 24.7544 8.40485C24.2743 9.04193 23.0136 10.9681 22.6598 11.5339L21.2735 13.6603C19.8295 15.8664 18.2803 18.3652 16.8331 20.5225C16.4455 21.1005 16.0315 21.6043 16.0315 22.3777L16.0312 22.378Z" fill="#C3DE35"/>
<path fill-rule="evenodd" clip-rule="evenodd" d="M10.1768 22.1975C10.1768 22.8795 10.3779 23.3242 10.773 23.7177C11.5294 24.4713 12.692 24.5834 13.5225 23.9672C13.7216 23.8195 13.7766 23.8174 13.9339 23.6131C14.0653 23.443 14.1642 23.3477 14.2926 23.1612L16.1837 20.279C16.9829 19.0903 17.8468 17.6478 18.6695 16.4155L22.4163 10.6157C23.0963 9.60257 23.0593 8.66335 22.1896 7.79799C21.4962 7.10797 20.3677 7.02301 19.5628 7.5821C19.2283 7.81426 19.0109 8.10633 18.7777 8.41802L11.212 20.0357C11.1085 20.1917 11.0284 20.3358 10.9153 20.5047C10.5512 21.0483 10.1768 21.4889 10.1768 22.1977V22.1975Z" fill="#C3DE35"/>
<path fill-rule="evenodd" clip-rule="evenodd" d="M76.9136 24.5846C76.9136 25.4327 77.1362 26.5129 77.4982 27.2422C77.7102 27.6693 78.1046 28.3945 78.4333 28.7387C78.7936 29.1157 78.7943 29.1862 79.2543 29.5387C79.4089 29.6573 79.5533 29.7544 79.7317 29.8719C80.0703 30.095 80.4169 30.2502 80.8177 30.4069C82.5587 31.0882 84.9908 31.0156 86.7585 30.4214C87.3201 30.2326 88.6666 29.7138 88.6666 29.0873V24.3589H86.0548C86.0548 24.7148 86.0073 24.8899 86.0088 25.2135L86.0098 27.9614C85.13 28.427 84.684 28.5468 83.6232 28.5468C83.0615 28.5468 82.5138 28.3908 82.1215 28.2023C81.8852 28.0887 81.4816 27.8498 81.2931 27.6799L80.82 27.2073C80.7141 27.0934 80.7048 27.0978 80.6142 26.9628C80.4791 26.7616 80.3655 26.6113 80.2648 26.3665C79.8888 25.4528 79.8857 25.3423 79.8857 24.3589C79.8857 23.712 80.0181 23.2986 80.2067 22.8335C80.7195 21.5684 82.2096 20.6664 83.7133 20.6664C85.3007 20.6664 85.6535 21.0098 87.0906 21.9723L88.4484 20.8081C88.6163 20.6746 88.7469 20.5421 88.8019 20.3061C87.3222 18.0966 83.2051 17.8257 80.953 18.7164C80.1821 19.0211 79.498 19.3925 78.8842 19.9348C77.8494 20.8489 76.9138 22.6458 76.9138 24.5839L76.9136 24.5846Z" fill="#FEFEFE"/>
<path fill-rule="evenodd" clip-rule="evenodd" d="M33.8189 5.58118C33.8189 6.13692 34.0208 6.56224 34.2816 6.87445C34.9133 7.63032 36.063 7.64246 36.8173 7.09344C37.3307 6.72002 37.7751 6.07597 38.2428 5.54684C38.468 5.29195 38.6725 4.95056 39.1324 4.95056L49.2209 5.04223C49.9444 5.0412 51.0252 4.87335 51.5432 4.48263C52.4114 3.82799 52.7404 1.66961 50.847 1.11621C50.361 0.974173 48.4224 0.941376 47.8233 0.942667C45.2641 0.948349 42.4614 0.809415 39.988 0.942926C39.4916 0.969783 38.9568 0.897734 38.4827 0.96875C37.2731 1.14978 37.5587 0.782558 36.3739 1.96711C35.8525 2.48849 35.4096 3.0197 34.9306 3.58602C34.5019 4.09268 33.8184 4.69025 33.8184 5.58092L33.8189 5.58118Z" fill="#FEFEFE"/>
<path fill-rule="evenodd" clip-rule="evenodd" d="M105.373 22.1075C105.373 23.8111 106.724 24.8567 108.226 25.289L110.568 25.9186C110.876 26.0097 112.533 26.5156 112.533 26.9709C112.533 27.5354 112.447 28.0075 111.947 28.3213C111.066 28.8749 108.922 28.5898 108.069 28.2825C107.7 28.1493 107.456 28.0003 107.114 27.8412C106.779 27.685 106.399 27.5829 106.093 27.421C106.018 27.5791 105.956 27.7531 105.881 27.9287L105.238 29.4474C105.866 30.3849 108.411 30.9334 109.696 30.9334C111.374 30.9334 112.541 30.8592 113.902 29.9608C115.788 28.7151 115.881 26.0314 114.546 24.9122C113.606 24.1238 112.442 23.8183 111.254 23.5213C110.81 23.4103 110.437 23.3166 109.993 23.206C109.332 23.0415 108.21 22.7335 108.21 21.8371C108.21 20.9578 109.704 20.5312 110.326 20.5312C111.722 20.5312 112.353 20.7052 113.581 21.2388C113.726 21.3015 113.775 21.3508 113.929 21.3867C114.159 21.2328 114.359 20.7845 114.476 20.4932C114.981 19.2369 114.884 19.3415 114.488 19.0711C113.581 18.4513 111.804 18.1895 110.686 18.1895C109.113 18.1895 107.337 18.6755 106.395 19.6173C105.797 20.2156 105.373 21.2029 105.373 22.107L105.373 22.1075Z" fill="#FEFEFE"/>
<path fill-rule="evenodd" clip-rule="evenodd" d="M2.1167 17.1993C2.1167 18.3115 3.06212 19.1356 4.32336 19.1356C5.03921 19.1356 5.54226 18.5992 5.91335 18.1589L6.58968 17.214C7.38016 15.9264 8.26231 14.714 9.09668 13.4618C9.37093 13.0504 9.65009 12.5918 9.94552 12.1941L11.1946 10.2908C11.9404 8.95986 10.8057 7.47266 9.36706 7.47266C7.87624 7.47266 7.05839 9.31417 6.17882 10.6338L2.79251 15.7134C2.53634 16.0976 2.11696 16.5839 2.11696 17.1993H2.1167Z" fill="#C3DE35"/>
<path fill-rule="evenodd" clip-rule="evenodd" d="M39.5825 6.482C39.5825 6.95044 39.6592 7.5351 40.0463 7.77449C40.1837 7.85945 40.327 7.89999 40.5145 7.93666C41.0901 8.049 46.8817 8.0131 47.3729 8.0131C47.9671 8.0131 50.7297 7.97747 51.1734 7.71587C51.656 7.43129 51.8138 5.66596 50.9381 5.34832C50.5577 5.21042 49.838 5.15619 49.2831 5.24012C48.3454 5.38189 40.9205 5.14405 40.2679 5.3212C40.0559 5.37879 39.8717 5.53813 39.762 5.7158C39.6809 5.84698 39.5825 6.26921 39.5825 6.482Z" fill="#C3DE35"/>
<path fill-rule="evenodd" clip-rule="evenodd" d="M17.0669 27.8267C17.0669 28.2812 17.1795 28.6765 17.3236 29.011C17.4274 29.2519 17.7394 29.6989 17.916 29.8595C18.427 30.3239 19.2384 30.7538 19.9489 30.7538C21.1086 30.7538 21.5933 30.6237 22.4153 29.7978C22.8053 29.4061 23.2363 28.4658 23.2363 27.6916C23.2363 25.2776 20.0361 23.5228 17.9782 25.5859C17.4747 26.0908 17.0669 26.8389 17.0669 27.8267Z" fill="#FEFEFE"/>
<path fill-rule="evenodd" clip-rule="evenodd" d="M6.52956 27.7823C6.52956 28.5945 6.83686 29.3305 7.37245 29.8663C8.50948 31.0033 10.5891 31.109 11.7878 29.8885C12.1589 29.5104 12.6537 28.6443 12.6537 27.9174C12.6537 27.256 12.6491 26.9376 12.3082 26.3263C11.324 24.5613 8.95108 24.0642 7.44114 25.5867C6.85442 26.1784 6.5293 26.8444 6.5293 27.782L6.52956 27.7823Z" fill="#FEFEFE"/>
<path fill-rule="evenodd" clip-rule="evenodd" d="M0 13.1543C0.034346 13.3772 0.149005 13.4239 0.484717 13.788C0.577167 13.8882 0.577942 13.9257 0.664711 14.0135C1.29869 14.6562 2.78409 14.6531 3.51362 13.6881C3.67192 13.4787 3.80982 13.2731 3.96322 13.0569C4.11687 12.8405 4.26097 12.6138 4.42598 12.394L5.30013 11.0615C5.76754 10.2235 6.13889 9.60582 5.69007 8.6728C5.55449 8.3908 5.48838 8.29784 5.28102 8.09124C4.47841 7.29147 3.16086 7.38031 2.4649 8.13644C1.92028 8.72806 0.78815 10.6848 0.179735 11.5251C0.0950325 11.642 0.00025824 11.6934 0.00025824 11.8861V13.1546L0 13.1543Z" fill="#C3DE35"/>
</svg>
