<svg width="95" height="39" viewBox="0 0 95 39" fill="none" xmlns="http://www.w3.org/2000/svg">
<g clip-path="url(#clip0_1_663)">
<path d="M12.3078 8.52734C5.61163 8.52734 0.0317383 11.4351 0.0317383 20.2076C0.0317383 27.1574 3.78381 31.534 12.4807 31.534C22.7173 31.534 23.3735 24.632 23.3735 24.632H18.4134C18.4134 24.632 17.3499 28.3484 12.1781 28.3484C7.96582 28.3484 4.93619 25.4359 4.93619 21.3536H23.8922V18.7918C23.8922 14.7531 21.3874 8.52734 12.3078 8.52734ZM12.1349 11.8014C16.1445 11.8014 18.8781 14.3156 18.8781 18.0839H5.0459C5.0459 14.0834 8.61384 11.8014 12.1349 11.8014Z" fill="white"/>
<path d="M23.8885 0.0332031V27.129C23.8885 28.6671 23.7812 30.8267 23.7812 30.8267H28.5122C28.5122 30.8267 28.682 29.2756 28.682 27.8581C28.682 27.8581 31.0194 31.601 37.3749 31.601C44.0675 31.601 48.6135 26.8451 48.6135 20.0313C48.6135 13.6925 44.4378 8.59432 37.3857 8.59432C30.7818 8.59432 28.7298 12.2444 28.7298 12.2444V0.0332031H23.8885ZM36.1645 11.9458C40.7093 11.9458 43.5993 15.3982 43.5993 20.0313C43.5993 24.9994 40.2615 28.2495 36.197 28.2495C31.3463 28.2495 28.7298 24.3729 28.7298 20.0755C28.7298 16.0712 31.0777 11.9458 36.1645 11.9458Z" fill="white"/>
<path d="M60.3708 8.52734C50.2969 8.52734 49.6508 14.1732 49.6508 15.0754H54.665C54.665 15.0754 54.9279 11.7792 60.025 11.7792C63.3371 11.7792 65.9036 13.331 65.9036 16.3142V17.376H60.025C52.2206 17.376 48.0947 19.7129 48.0947 24.455C48.0947 29.1219 51.9069 31.6612 57.0586 31.6612C64.0796 31.6612 66.3413 27.6903 66.3413 27.6903C66.3413 29.2697 66.4603 30.8261 66.4603 30.8261H70.9178C70.9178 30.8261 70.7449 28.8969 70.7449 27.6627V16.9944C70.7449 9.99944 65.2325 8.52734 60.3708 8.52734ZM65.9036 20.5616V21.9774C65.9036 23.8239 64.7904 28.4148 58.2365 28.4148C54.6476 28.4148 53.1089 26.5815 53.1089 24.455C53.1089 20.5865 58.2908 20.5616 65.9036 20.5616Z" fill="white"/>
<path d="M68.0449 9.41211H73.6859L81.7814 26.0129L89.8584 9.41211H94.9682L80.2561 38.9668H74.8962L79.1415 30.728L68.0449 9.41211Z" fill="white"/>
</g>
<defs>
<clipPath id="clip0_1_663">
<rect width="95" height="39" fill="white"/>
</clipPath>
</defs>
</svg>
