<svg width="32" height="30" viewBox="0 0 32 30" fill="none" xmlns="http://www.w3.org/2000/svg">
<rect width="32" height="30" rx="5" fill="#94AE0A"/>
<path d="M24.9895 19.0864C24.829 20.1704 24.2301 21.1654 23.3046 21.8856C22.3791 22.6058 21.1903 23.002 19.9602 23C12.8141 23 7.00001 17.8319 7.00001 11.4799C6.9978 10.3865 7.44343 9.3298 8.25367 8.50713C9.06391 7.68446 10.1833 7.15208 11.4029 7.00944C11.7113 6.97597 12.0236 7.03205 12.2932 7.16931C12.5628 7.30657 12.7752 7.51765 12.8987 7.77105L14.7995 11.5431V11.5527C14.8941 11.7466 14.9332 11.9584 14.9132 12.1691C14.8933 12.3797 14.815 12.5827 14.6852 12.7599C14.669 12.7815 14.6519 12.8015 14.6339 12.8215L12.7601 14.7959C13.4342 16.0135 14.867 17.2759 16.2549 17.8767L18.4455 16.2199C18.467 16.2038 18.4895 16.1889 18.513 16.1751C18.7122 16.057 18.9413 15.985 19.1797 15.9654C19.4181 15.9459 19.6582 15.9794 19.8783 16.0631L19.89 16.0679L24.13 17.7567C24.4156 17.8662 24.6536 18.0548 24.8086 18.2945C24.9635 18.5341 25.027 18.812 24.9895 19.0864Z" fill="white"/>
</svg>
