<svg width="9" height="10" viewBox="0 0 9 10" fill="none" xmlns="http://www.w3.org/2000/svg">
<path d="M8.29689 1.03655C8.13392 0.93312 7.93655 0.898654 7.74817 0.940732C7.55979 0.98281 7.39584 1.09799 7.29237 1.26093L3.27576 7.5876L1.26866 5.7681C1.19785 5.70391 1.11509 5.65429 1.0251 5.62208C0.935109 5.58987 0.839657 5.5757 0.744192 5.58038C0.551391 5.58983 0.37024 5.67548 0.240592 5.81849C0.110943 5.96151 0.043417 6.15017 0.0528675 6.34297C0.062318 6.53577 0.147971 6.71692 0.290985 6.84657L2.92631 9.23544C2.92631 9.23544 3.00191 9.29923 3.03683 9.32146C3.11753 9.37271 3.20754 9.40756 3.30172 9.42402C3.39589 9.44048 3.49239 9.43823 3.58569 9.41739C3.67899 9.39656 3.76728 9.35754 3.84551 9.30258C3.92373 9.24762 3.99036 9.17779 4.0416 9.09707L8.52127 2.04107C8.6247 1.8781 8.65917 1.68073 8.61709 1.49235C8.57501 1.30397 8.45984 1.14002 8.29689 1.03655Z" fill="#C3DE35"/>
</svg>
