<svg width="48" height="47" viewBox="0 0 48 47" fill="none" xmlns="http://www.w3.org/2000/svg">
<rect x="0.333008" width="47" height="47" rx="10" fill="#F7F9EE"/>
<path d="M14.1163 34.5C13.9126 34.5 13.6987 34.4947 13.4747 34.4841C13.2506 34.4735 13.0367 34.4584 12.833 34.4389V27.2889L18.9441 26.0667L22.4886 29.6111C24.0367 28.6741 25.4577 27.5639 26.7517 26.2806C28.0456 24.9972 29.1199 23.6222 29.9747 22.1556L26.4913 18.6417L27.6219 12.5H34.7719C34.8126 12.7037 34.833 12.9176 34.833 13.1417V13.7833C34.833 16.4111 34.2476 18.9729 33.0767 21.4687C31.9058 23.9644 30.3576 26.1795 28.4322 28.1139C26.5068 30.0491 24.2966 31.5972 21.8017 32.7583C19.3067 33.9194 16.7449 34.5 14.1163 34.5ZM31.1358 19.8333C31.4821 19.0389 31.7469 18.2343 31.9302 17.4194C32.1136 16.6046 32.2562 15.7796 32.358 14.9444H29.6386L29.1191 17.8167L31.1358 19.8333ZM20.1969 30.7722L18.1497 28.725L15.2775 29.3056V31.9944C16.1126 31.9333 16.9429 31.8009 17.7683 31.5972C18.5937 31.3935 19.4033 31.1185 20.1969 30.7722Z" fill="#1F2406"/>
</svg>
