<svg width="87" height="87" viewBox="0 0 87 87" fill="none" xmlns="http://www.w3.org/2000/svg">
  <g filter="url(#filter0_d_104_10524)">
    <path d="M80 0H43.5C23.3416 0 7 16.3416 7 36.5C7 56.6584 23.3416 73 43.5 73C63.6584 73 80 56.6584 80 36.5V0Z" fill="#C3DE35" />
    <g clip-path="url(#clip0_104_10524)">
      <path fill-rule="evenodd" clip-rule="evenodd" d="M34.5881 19.3488C41.1635 18.8531 47.768 18.8858 54.3382 19.4464L58.2985 19.7833C59.7513 19.9076 61.1202 20.5172 62.1852 21.514C63.2502 22.5109 63.9494 23.8371 64.1706 25.2797L64.4193 26.9125C65.2655 32.4477 65.1864 38.0853 64.1852 43.5946C63.9468 44.9123 63.2532 46.1043 62.2258 46.9622C61.1983 47.8201 59.9023 48.2894 58.5643 48.288H36.6756C36.1708 48.288 35.6757 48.4125 35.2319 48.6516L25.6946 53.782C25.4159 53.9318 25.1032 54.0068 24.7869 53.9995C24.4706 53.9922 24.1616 53.9029 23.89 53.7404C23.6185 53.5778 23.3938 53.3476 23.2378 53.0721C23.0818 52.7966 22.9999 52.4853 23 52.1687V31.3814C23.0006 28.3473 24.1465 25.4255 26.208 23.2011C28.2696 20.9766 31.0946 19.6138 34.1175 19.3854L34.5881 19.3488ZM34.5833 31.4229C33.7748 31.4229 32.9995 31.7443 32.4278 32.3164C31.8562 32.8886 31.535 33.6646 31.535 34.4737C31.535 35.2829 31.8562 36.0589 32.4278 36.631C32.9995 37.2031 33.7748 37.5246 34.5833 37.5246C35.3917 37.5246 36.167 37.2031 36.7387 36.631C37.3103 36.0589 37.6315 35.2829 37.6315 34.4737C37.6315 33.6646 37.3103 32.8886 36.7387 32.3164C36.167 31.7443 35.3917 31.4229 34.5833 31.4229ZM44.3376 31.4229C43.5291 31.4229 42.7538 31.7443 42.1822 32.3164C41.6105 32.8886 41.2894 33.6646 41.2894 34.4737C41.2894 35.2829 41.6105 36.0589 42.1822 36.631C42.7538 37.2031 43.5291 37.5246 44.3376 37.5246C45.146 37.5246 45.9214 37.2031 46.493 36.631C47.0647 36.0589 47.3858 35.2829 47.3858 34.4737C47.3858 33.6646 47.0647 32.8886 46.493 32.3164C45.9214 31.7443 45.146 31.4229 44.3376 31.4229ZM51.0437 34.4737C51.0437 33.6646 51.3648 32.8886 51.9365 32.3164C52.5081 31.7443 53.2835 31.4229 54.0919 31.4229C54.9004 31.4229 55.6757 31.7443 56.2473 32.3164C56.819 32.8886 57.1401 33.6646 57.1401 34.4737C57.1401 35.2829 56.819 36.0589 56.2473 36.631C55.6757 37.2031 54.9004 37.5246 54.0919 37.5246C53.2835 37.5246 52.5081 37.2031 51.9365 36.631C51.3648 36.0589 51.0437 35.2829 51.0437 34.4737Z" fill="black" />
    </g>
  </g>
  <defs>
    <filter id="filter0_d_104_10524" x="0.0999999" y="0" width="86.8" height="86.9" filterUnits="userSpaceOnUse" color-interpolation-filters="sRGB">
      <feFlood flood-opacity="0" result="BackgroundImageFix" />
      <feColorMatrix in="SourceAlpha" type="matrix" values="0 0 0 0 0 0 0 0 0 0 0 0 0 0 0 0 0 0 127 0" result="hardAlpha" />
      <feOffset dy="7" />
      <feGaussianBlur stdDeviation="3.45" />
      <feComposite in2="hardAlpha" operator="out" />
      <feColorMatrix type="matrix" values="0 0 0 0 0 0 0 0 0 0 0 0 0 0 0 0 0 0 0.41 0" />
      <feBlend mode="normal" in2="BackgroundImageFix" result="effect1_dropShadow_104_10524" />
      <feBlend mode="normal" in="SourceGraphic" in2="effect1_dropShadow_104_10524" result="shape" />
    </filter>
    <clipPath id="clip0_104_10524">
      <rect width="42" height="35" fill="white" transform="translate(23 19)" />
    </clipPath>
  </defs>
</svg>