<svg width="47" height="47" viewBox="0 0 47 47" fill="none" xmlns="http://www.w3.org/2000/svg">
<rect width="47" height="47" rx="10" fill="#F7F9EE"/>
<path d="M23.5 23.758C24.2563 23.758 24.9039 23.4883 25.4429 22.949C25.9819 22.4097 26.2509 21.7621 26.25 21.0064C26.25 20.2497 25.9805 19.6017 25.4415 19.0624C24.9025 18.5231 24.2553 18.2539 23.5 18.2548C22.7437 18.2548 22.0961 18.5244 21.5571 19.0637C21.0181 19.6031 20.7491 20.2506 20.75 21.0064C20.75 21.7631 21.0195 22.4111 21.5585 22.9504C22.0975 23.4897 22.7447 23.7589 23.5 23.758ZM23.5 33.8701C26.2958 31.3019 28.3698 28.9686 29.7219 26.87C31.074 24.7715 31.75 22.9086 31.75 21.2815C31.75 18.7822 30.9534 16.7359 29.3602 15.1427C27.7671 13.5496 25.8137 12.7525 23.5 12.7516C21.1854 12.7516 19.2315 13.5486 17.6384 15.1427C16.0452 16.7368 15.2491 18.7831 15.25 21.2815C15.25 22.9096 15.926 24.7728 17.2781 26.8714C18.6302 28.9699 20.7042 31.3028 23.5 33.8701ZM23.5 37C23.3167 37 23.1333 36.9656 22.95 36.8968C22.7667 36.828 22.6062 36.7363 22.4688 36.6217C19.1229 33.6637 16.625 30.9176 14.975 28.3834C13.325 25.8492 12.5 23.4819 12.5 21.2815C12.5 17.842 13.606 15.1019 15.8179 13.0611C18.0298 11.0204 20.5905 10 23.5 10C26.4104 10 28.9716 11.0204 31.1835 13.0611C33.3954 15.1019 34.5009 17.842 34.5 21.2815C34.5 23.4828 33.675 25.8505 32.025 28.3848C30.375 30.919 27.8771 33.6646 24.5312 36.6217C24.3938 36.7363 24.2333 36.828 24.05 36.8968C23.8667 36.9656 23.6833 37 23.5 37Z" fill="#1F2406"/>
</svg>
