<svg width="48" height="47" viewBox="0 0 48 47" fill="none" xmlns="http://www.w3.org/2000/svg">
<rect x="0.666016" width="47" height="47" rx="10" fill="#F7F9EE"/>
<path d="M29.3401 23.5C29.34 24.5005 29.0434 25.4787 28.4876 26.3116C27.9317 27.1446 27.1415 27.7952 26.2161 28.1819C25.2907 28.5685 24.2713 28.6738 23.286 28.4847C22.3007 28.2956 21.3935 27.8204 20.6781 27.1188C19.9628 26.4172 19.4713 25.5205 19.2654 24.5413C19.0594 23.5621 19.1482 22.5441 19.5206 21.6151C19.893 20.686 20.5324 19.8874 21.3584 19.3195C22.1845 18.7516 23.1604 18.4398 24.1637 18.4231C24.8394 18.4119 25.5106 18.5349 26.1382 18.785C26.7658 19.0351 27.3371 19.4073 27.8189 19.8798C28.3008 20.3524 28.6834 20.9159 28.9446 21.5374C29.2057 22.159 29.3402 22.8261 29.3401 23.5ZM29.3401 23.5L29.3401 25.7C29.3401 31.6062 38.6237 26.0385 33.7528 18.0169C32.772 16.3467 31.3721 14.9598 29.6908 13.9925C28.0095 13.0252 26.1047 12.5108 24.1637 12.5C22.533 12.505 20.9236 12.8705 19.4515 13.57C17.9795 14.2696 16.6812 15.2859 15.6503 16.5458C14.6193 17.8056 13.8813 19.2777 13.4894 20.8561C13.0975 22.4345 13.0613 24.0799 13.3836 25.6738C13.7059 27.2678 14.3785 28.7707 15.3532 30.0744C16.3278 31.378 17.5802 32.45 19.0201 33.2132C20.4601 33.9764 22.0518 34.4117 23.6807 34.4879C25.3097 34.5641 26.9353 34.2793 28.4406 33.6539" stroke="#1F2406" stroke-width="3" stroke-linecap="round" stroke-linejoin="round"/>
</svg>
